<?xml version="1.0" standalone="no"?>
<!DOCTYPE svg PUBLIC "-//W3C//DTD SVG 20010904//EN"
 "http://www.w3.org/TR/2001/REC-SVG-20010904/DTD/svg10.dtd">
<svg version="1.0" xmlns="http://www.w3.org/2000/svg"
 width="240.000000pt" height="240.000000pt" viewBox="0 0 240.000000 240.000000"
 preserveAspectRatio="xMidYMid meet">
<metadata>
Created by potrace 1.14, written by Peter Selinger 2001-2017
</metadata>
<g transform="translate(0.000000,240.000000) scale(0.100000,-0.100000)"
fill="#000000" stroke="none">
<path d="M1175 2049 c-9 -25 -1 -129 10 -129 13 0 19 105 6 127 -9 16 -10 16
-16 2z"/>
<path d="M870 1979 c0 -21 62 -119 71 -113 5 3 -5 32 -23 65 -31 56 -48 73
-48 48z"/>
<path d="M1441 1925 c-31 -55 -37 -75 -23 -75 7 0 72 111 72 124 0 21 -22 -2
-49 -49z"/>
<path d="M1031 1845 c-129 -36 -201 -120 -201 -234 0 -67 13 -97 52 -121 47
-28 80 -25 111 9 l26 30 -31 3 c-17 2 -33 8 -35 14 -2 7 25 14 74 18 137 13
133 10 133 89 0 44 6 71 20 94 19 32 66 63 95 63 27 0 16 -16 -22 -33 -21 -9
-44 -26 -51 -37 -15 -24 -29 -120 -17 -120 4 0 31 7 61 16 57 16 84 43 84 81
0 14 6 23 15 23 20 0 19 -18 -4 -64 -11 -21 -17 -44 -14 -52 4 -12 -2 -14 -28
-13 -63 3 -78 -1 -115 -33 -32 -29 -35 -36 -32 -75 2 -29 -1 -43 -9 -43 -15 0
-27 43 -20 70 10 38 -40 24 -88 -25 -54 -54 -60 -92 -19 -124 36 -28 120 -29
174 -1 22 11 63 24 92 28 50 7 52 9 30 21 -20 10 -33 9 -85 -8 -66 -23 -127
-27 -158 -11 -24 13 -28 80 -4 80 11 0 14 -7 10 -23 -4 -15 0 -28 10 -37 17
-14 54 -9 162 22 38 11 48 10 88 -10 58 -28 85 -18 85 33 0 18 4 36 9 40 14 8
24 -31 16 -63 -5 -24 -2 -30 20 -40 40 -18 54 -15 75 21 23 37 27 119 7 157
-11 20 -20 25 -50 24 -46 -2 -45 17 1 31 18 5 32 12 32 16 0 9 -59 69 -68 69
-4 0 -13 -21 -19 -47 -7 -27 -15 -58 -19 -70 -8 -28 27 -63 62 -63 16 0 24 -5
21 -12 -7 -20 -57 -11 -83 13 -20 19 -26 20 -40 8 -12 -9 -15 -24 -11 -51 6
-43 -8 -50 -25 -13 -6 14 -17 25 -25 25 -22 0 -15 14 15 31 62 35 104 183 67
235 -8 12 -38 32 -67 44 -69 30 -226 37 -307 15z m33 -44 c17 -19 18 -19 37 0
18 18 49 26 49 13 0 -4 -11 -17 -25 -30 -21 -20 -24 -29 -19 -61 7 -46 -9 -64
-76 -88 -24 -8 -58 -27 -76 -40 -18 -14 -35 -21 -38 -17 -10 16 50 62 104 80
35 12 56 25 58 36 6 29 -7 63 -33 87 -13 13 -25 27 -25 32 0 14 27 7 44 -12z
m-78 -68 c-2 -36 -3 -38 -39 -41 -28 -2 -43 -11 -59 -33 -12 -16 -25 -29 -30
-29 -15 0 -8 27 13 54 15 19 30 26 56 26 30 0 35 3 30 19 -5 21 10 54 22 47 4
-3 7 -22 7 -43z m261 -205 c23 -21 32 -58 14 -58 -5 0 -13 9 -16 21 -4 11 -18
25 -31 31 -13 6 -24 15 -24 20 0 16 34 8 57 -14z"/>
<path d="M670 1763 c0 -8 102 -73 114 -73 20 0 -1 21 -46 46 -67 37 -68 37
-68 27z"/>
<path d="M1623 1729 c-45 -26 -67 -49 -48 -49 13 0 115 63 115 71 0 14 -12 11
-67 -22z"/>
<path d="M640 1490 c0 -6 28 -10 65 -10 37 0 65 4 65 10 0 6 -28 10 -65 10
-37 0 -65 -4 -65 -10z"/>
<path d="M804 1445 c7 -64 36 -132 98 -232 46 -74 62 -119 73 -207 4 -32 15
-57 30 -72 23 -23 29 -24 175 -24 83 0 159 4 169 10 23 12 38 50 45 117 8 62
26 109 71 179 41 63 75 129 75 144 0 23 -31 8 -46 -22 -9 -18 -36 -65 -60
-103 -50 -81 -74 -143 -74 -190 0 -18 -5 -46 -11 -64 l-11 -31 -153 0 c-110 0
-155 3 -163 13 -5 6 -13 40 -17 74 -8 68 -40 144 -104 242 -42 66 -71 143 -71
193 0 19 -5 28 -16 28 -14 0 -16 -8 -10 -55z"/>
<path d="M1610 1490 c0 -6 28 -10 65 -10 37 0 65 4 65 10 0 6 -28 10 -65 10
-37 0 -65 -4 -65 -10z"/>
<path d="M1390 1401 c-8 -5 -46 -12 -83 -16 l-69 -7 23 -24 c12 -13 36 -28 54
-34 43 -14 114 2 138 31 18 22 18 23 -5 41 -26 20 -36 21 -58 9z"/>
<path d="M1195 1355 c-19 -15 -19 -16 5 -32 14 -9 44 -36 68 -60 32 -33 48
-43 63 -38 19 6 19 7 2 37 -10 16 -27 34 -38 38 -25 10 -65 47 -65 60 0 14
-12 12 -35 -5z"/>
<path d="M1570 1301 c0 -8 102 -71 115 -71 20 0 -3 23 -49 49 -57 33 -66 36
-66 22z"/>
<path d="M723 1269 c-73 -43 -67 -58 7 -17 33 18 60 36 60 40 0 13 -13 9 -67
-23z"/>
<path d="M1034 885 c-12 -31 7 -35 161 -35 121 0 154 3 158 14 12 30 -16 36
-165 36 -121 0 -150 -3 -154 -15z"/>
<path d="M1037 829 c-14 -8 -16 -14 -6 -25 17 -20 314 -21 322 0 12 30 -16 36
-158 36 -79 0 -148 -5 -158 -11z"/>
<path d="M1175 770 c-71 -3 -129 -8 -127 -12 1 -5 2 -13 2 -18 0 -16 282 -9
287 7 8 22 -32 28 -162 23z"/>
<path d="M1107 680 c23 -27 33 -30 83 -30 49 0 60 4 85 30 l29 30 -112 0 -112
0 27 -30z"/>
<path d="M1050 549 c-24 -10 -24 -11 -5 -22 23 -13 235 -16 278 -4 36 10 34
23 -4 31 -49 9 -241 6 -269 -5z"/>
<path d="M0 35 l0 -35 67 0 c43 0 64 3 57 10 -5 5 -20 11 -33 13 -12 2 -26 8
-29 13 -4 5 -19 15 -34 21 -28 12 -28 12 -28 -22z"/>
</g>
</svg>
